<mxfile host="app.diagrams.net" modified="2021-06-10T09:39:27.449Z" agent="5.0 (Windows NT 10.0; Win64; x64) AppleWebKit/537.36 (KHTML, like Gecko) Chrome/91.0.4472.77 Safari/537.36" etag="0yzBSY7HF-qyOu0cYQ6q" version="14.7.7" type="github">
  <diagram id="9G6DWGvrxe1A10mMCoee" name="Page-1">
    <mxGraphModel dx="1038" dy="547" grid="1" gridSize="10" guides="1" tooltips="1" connect="1" arrows="1" fold="1" page="1" pageScale="1" pageWidth="827" pageHeight="1169" math="0" shadow="0">
      <root>
        <mxCell id="0" />
        <mxCell id="1" parent="0" />
        <mxCell id="gOXKGh_SDQsF3oveUpiX-8" style="edgeStyle=orthogonalEdgeStyle;rounded=0;orthogonalLoop=1;jettySize=auto;html=1;exitX=1;exitY=0.5;exitDx=0;exitDy=0;entryX=0;entryY=0.5;entryDx=0;entryDy=0;" edge="1" parent="1" source="gOXKGh_SDQsF3oveUpiX-1" target="gOXKGh_SDQsF3oveUpiX-6">
          <mxGeometry relative="1" as="geometry" />
        </mxCell>
        <mxCell id="gOXKGh_SDQsF3oveUpiX-1" value="&lt;font style=&quot;font-size: 17px&quot; color=&quot;#ffffff&quot;&gt;付款单提交&lt;/font&gt;" style="rounded=1;whiteSpace=wrap;html=1;shadow=0;sketch=0;glass=0;fillColor=#99CCFF;strokeColor=none;" vertex="1" parent="1">
          <mxGeometry x="180" y="220" width="100" height="50" as="geometry" />
        </mxCell>
        <mxCell id="gOXKGh_SDQsF3oveUpiX-5" style="edgeStyle=orthogonalEdgeStyle;rounded=0;orthogonalLoop=1;jettySize=auto;html=1;exitX=1;exitY=0.5;exitDx=0;exitDy=0;entryX=0;entryY=0.5;entryDx=0;entryDy=0;" edge="1" parent="1" target="gOXKGh_SDQsF3oveUpiX-1">
          <mxGeometry relative="1" as="geometry">
            <mxPoint x="130" y="245" as="sourcePoint" />
          </mxGeometry>
        </mxCell>
        <mxCell id="gOXKGh_SDQsF3oveUpiX-9" value="" style="edgeStyle=orthogonalEdgeStyle;rounded=0;orthogonalLoop=1;jettySize=auto;html=1;" edge="1" parent="1" source="gOXKGh_SDQsF3oveUpiX-6" target="gOXKGh_SDQsF3oveUpiX-7">
          <mxGeometry relative="1" as="geometry" />
        </mxCell>
        <mxCell id="gOXKGh_SDQsF3oveUpiX-6" value="&lt;font style=&quot;font-size: 17px&quot; color=&quot;#ffffff&quot;&gt;付款单审核&lt;/font&gt;" style="rounded=1;whiteSpace=wrap;html=1;shadow=0;sketch=0;glass=0;fillColor=#99CCFF;strokeColor=none;" vertex="1" parent="1">
          <mxGeometry x="320" y="220" width="100" height="50" as="geometry" />
        </mxCell>
        <mxCell id="gOXKGh_SDQsF3oveUpiX-23" value="" style="edgeStyle=orthogonalEdgeStyle;rounded=0;orthogonalLoop=1;jettySize=auto;html=1;" edge="1" parent="1" source="gOXKGh_SDQsF3oveUpiX-7" target="gOXKGh_SDQsF3oveUpiX-22">
          <mxGeometry relative="1" as="geometry" />
        </mxCell>
        <mxCell id="gOXKGh_SDQsF3oveUpiX-7" value="&lt;font style=&quot;font-size: 17px&quot; color=&quot;#ffffff&quot;&gt;付款单付款&lt;/font&gt;" style="rounded=1;whiteSpace=wrap;html=1;shadow=0;sketch=0;glass=0;fillColor=#99CCFF;strokeColor=none;" vertex="1" parent="1">
          <mxGeometry x="460" y="220" width="100" height="50" as="geometry" />
        </mxCell>
        <mxCell id="gOXKGh_SDQsF3oveUpiX-27" style="edgeStyle=orthogonalEdgeStyle;rounded=0;orthogonalLoop=1;jettySize=auto;html=1;entryX=0;entryY=0.5;entryDx=0;entryDy=0;" edge="1" parent="1" source="gOXKGh_SDQsF3oveUpiX-12" target="gOXKGh_SDQsF3oveUpiX-24">
          <mxGeometry relative="1" as="geometry" />
        </mxCell>
        <mxCell id="gOXKGh_SDQsF3oveUpiX-12" value="&lt;font style=&quot;font-size: 17px&quot; color=&quot;#ffffff&quot;&gt;银行付款结果导出&lt;/font&gt;" style="rounded=1;whiteSpace=wrap;html=1;shadow=0;sketch=0;glass=0;fillColor=#99CCFF;strokeColor=none;" vertex="1" parent="1">
          <mxGeometry x="360" y="330" width="100" height="50" as="geometry" />
        </mxCell>
        <mxCell id="gOXKGh_SDQsF3oveUpiX-13" style="edgeStyle=orthogonalEdgeStyle;rounded=0;orthogonalLoop=1;jettySize=auto;html=1;exitX=1;exitY=0.5;exitDx=0;exitDy=0;entryX=0;entryY=0.5;entryDx=0;entryDy=0;" edge="1" parent="1" target="gOXKGh_SDQsF3oveUpiX-12">
          <mxGeometry relative="1" as="geometry">
            <mxPoint x="294" y="355" as="sourcePoint" />
          </mxGeometry>
        </mxCell>
        <mxCell id="gOXKGh_SDQsF3oveUpiX-18" value="机器人1" style="rounded=0;whiteSpace=wrap;html=1;shadow=0;glass=0;sketch=0;fillColor=#99CCFF;" vertex="1" parent="1">
          <mxGeometry x="40" y="222.5" width="90" height="45" as="geometry" />
        </mxCell>
        <mxCell id="gOXKGh_SDQsF3oveUpiX-19" value="机器人2" style="rounded=0;whiteSpace=wrap;html=1;shadow=0;glass=0;sketch=0;fillColor=#99CCFF;" vertex="1" parent="1">
          <mxGeometry x="200" y="330" width="90" height="45" as="geometry" />
        </mxCell>
        <mxCell id="gOXKGh_SDQsF3oveUpiX-26" style="edgeStyle=orthogonalEdgeStyle;rounded=0;orthogonalLoop=1;jettySize=auto;html=1;entryX=1;entryY=0.5;entryDx=0;entryDy=0;" edge="1" parent="1" source="gOXKGh_SDQsF3oveUpiX-22" target="gOXKGh_SDQsF3oveUpiX-24">
          <mxGeometry relative="1" as="geometry" />
        </mxCell>
        <mxCell id="gOXKGh_SDQsF3oveUpiX-22" value="&lt;font style=&quot;font-size: 17px&quot; color=&quot;#ffffff&quot;&gt;付款单导出&lt;/font&gt;" style="rounded=1;whiteSpace=wrap;html=1;shadow=0;sketch=0;glass=0;fillColor=#99CCFF;strokeColor=none;" vertex="1" parent="1">
          <mxGeometry x="620" y="220" width="120" height="50" as="geometry" />
        </mxCell>
        <mxCell id="gOXKGh_SDQsF3oveUpiX-24" value="结果匹配" style="shape=ext;double=1;rounded=1;whiteSpace=wrap;html=1;shadow=0;glass=0;sketch=0;fillColor=#99CCFF;" vertex="1" parent="1">
          <mxGeometry x="520" y="326.25" width="100" height="57.5" as="geometry" />
        </mxCell>
        <mxCell id="gOXKGh_SDQsF3oveUpiX-35" value="12:00" style="shape=umlLifeline;perimeter=lifelinePerimeter;whiteSpace=wrap;html=1;container=1;collapsible=0;recursiveResize=0;outlineConnect=0;rounded=1;shadow=0;glass=0;sketch=0;fillColor=#99CCFF;" vertex="1" parent="1">
          <mxGeometry x="55" y="20" width="60" height="200" as="geometry" />
        </mxCell>
        <mxCell id="gOXKGh_SDQsF3oveUpiX-36" value="18:00" style="shape=umlLifeline;perimeter=lifelinePerimeter;whiteSpace=wrap;html=1;container=1;collapsible=0;recursiveResize=0;outlineConnect=0;rounded=1;shadow=0;glass=0;sketch=0;fillColor=#99CCFF;" vertex="1" parent="1">
          <mxGeometry x="210" y="20" width="60" height="310" as="geometry" />
        </mxCell>
      </root>
    </mxGraphModel>
  </diagram>
</mxfile>
